<?xml version="1.0" encoding="UTF-8" standalone="no"?>
<!DOCTYPE svg PUBLIC "-//W3C//DTD SVG 1.1//EN" "http://www.w3.org/Graphics/SVG/1.1/DTD/svg11.dtd">
<svg width="100%" height="100%" viewBox="0 0 171 171" version="1.1" xmlns="http://www.w3.org/2000/svg" xmlns:xlink="http://www.w3.org/1999/xlink" xml:space="preserve" xmlns:serif="http://www.serif.com/" style="fill-rule:evenodd;clip-rule:evenodd;stroke-linejoin:round;stroke-miterlimit:2;">
    <g>
        <path d="M155.906,29.882C159.257,29.882 162.472,31.214 164.842,33.584C167.212,35.954 168.543,39.168 168.543,42.52L168.543,70.866C168.543,74.218 167.212,77.432 164.842,79.802C162.472,82.172 159.257,83.504 155.906,83.504L14.173,83.504C10.822,83.504 7.607,82.172 5.237,79.802C2.867,77.432 1.536,74.218 1.536,70.866L1.536,42.52C1.536,39.168 2.867,35.954 5.237,33.584C7.607,31.214 10.822,29.882 14.173,29.882L155.906,29.882Z" style="fill:url(#_Linear1);"/>
        <path d="M99.213,1.536C102.564,1.536 105.779,2.867 108.149,5.237C110.519,7.607 111.85,10.822 111.85,14.173L111.85,155.906C111.85,159.257 110.519,162.472 108.149,164.842C105.779,167.212 102.564,168.543 99.213,168.543L70.866,168.543C67.514,168.543 64.3,167.212 61.93,164.842C59.56,162.472 58.229,159.257 58.229,155.906L58.229,14.173C58.229,10.822 59.56,7.607 61.93,5.237C64.3,2.867 67.514,1.536 70.866,1.536L99.213,1.536Z" style="fill:url(#_Linear2);"/>
        <path d="M55.157,86.575L55.157,155.906C55.157,159.257 53.826,162.472 51.456,164.842C49.086,167.212 45.871,168.543 42.52,168.543L14.173,168.543C10.822,168.543 7.607,167.212 5.237,164.842C2.867,162.472 1.536,159.257 1.536,155.906L1.536,99.213C1.536,95.861 2.867,92.646 5.237,90.276C7.607,87.906 10.822,86.575 14.173,86.575L55.157,86.575Z" style="fill:url(#_Linear3);"/>
        <path d="M155.906,86.575C159.257,86.575 162.472,87.906 164.842,90.276C167.212,92.646 168.543,95.861 168.543,99.213L168.543,155.906C168.543,159.257 167.212,162.472 164.842,164.842C162.472,167.212 159.257,168.543 155.906,168.543L127.559,168.543C124.207,168.543 120.993,167.212 118.623,164.842C116.253,162.472 114.921,159.257 114.921,155.906L114.921,86.575L155.906,86.575Z" style="fill:url(#_Linear4);"/>
        <path d="M140.197,1.536L140.197,26.811L114.921,26.811L114.921,14.173C114.921,10.822 116.253,7.607 118.623,5.237C120.993,2.867 124.207,1.536 127.559,1.536L140.197,1.536Z" style="fill:url(#_Linear5);"/>
        <path d="M155.906,1.536C162.885,1.536 168.543,7.194 168.543,14.173C168.543,21.153 162.885,26.811 155.906,26.811L143.268,26.811L143.268,1.536L155.906,1.536Z" style="fill:url(#_Linear6);"/>
    </g>
    <defs>
        <linearGradient id="_Linear1" x1="0" y1="0" x2="1" y2="0" gradientUnits="userSpaceOnUse" gradientTransform="matrix(170.079,0,0,56.6929,0,56.6929)"><stop offset="0" style="stop-color:rgb(240,108,0);stop-opacity:1"/><stop offset="1" style="stop-color:rgb(255,224,29);stop-opacity:1"/></linearGradient>
        <linearGradient id="_Linear2" x1="0" y1="0" x2="1" y2="0" gradientUnits="userSpaceOnUse" gradientTransform="matrix(1.04143e-14,170.079,-170.079,1.04143e-14,85.0394,0)"><stop offset="0" style="stop-color:rgb(240,108,0);stop-opacity:1"/><stop offset="1" style="stop-color:rgb(255,224,29);stop-opacity:1"/></linearGradient>
        <linearGradient id="_Linear3" x1="0" y1="0" x2="1" y2="0" gradientUnits="userSpaceOnUse" gradientTransform="matrix(-1.36754e-14,-85.0394,3444.09,-5.53853e-13,28.3465,170.079)"><stop offset="0" style="stop-color:rgb(240,108,0);stop-opacity:1"/><stop offset="1" style="stop-color:rgb(255,224,29);stop-opacity:1"/></linearGradient>
        <linearGradient id="_Linear4" x1="0" y1="0" x2="1" y2="0" gradientUnits="userSpaceOnUse" gradientTransform="matrix(-1.36754e-14,-85.0394,3444.09,-5.53853e-13,141.732,170.079)"><stop offset="0" style="stop-color:rgb(240,108,0);stop-opacity:1"/><stop offset="1" style="stop-color:rgb(255,224,29);stop-opacity:1"/></linearGradient>
        <linearGradient id="_Linear5" x1="0" y1="0" x2="1" y2="0" gradientUnits="userSpaceOnUse" gradientTransform="matrix(-6.83769e-15,-28.3465,1722.05,-1.84618e-13,127.559,28.3465)"><stop offset="0" style="stop-color:rgb(240,108,0);stop-opacity:1"/><stop offset="1" style="stop-color:rgb(255,224,29);stop-opacity:1"/></linearGradient>
        <linearGradient id="_Linear6" x1="0" y1="0" x2="1" y2="0" gradientUnits="userSpaceOnUse" gradientTransform="matrix(-6.83769e-15,-28.3465,1722.05,-1.84618e-13,155.906,28.3465)"><stop offset="0" style="stop-color:rgb(240,108,0);stop-opacity:1"/><stop offset="1" style="stop-color:rgb(255,224,29);stop-opacity:1"/></linearGradient>
    </defs>
</svg>
